<svg id="Layer_1" data-name="Layer 1" xmlns="http://www.w3.org/2000/svg" viewBox="0 0 545.14 193.18"><defs><style>.cls-1,.cls-7{fill:#e6e7e8;}.cls-1,.cls-2,.cls-3,.cls-4,.cls-5,.cls-7{stroke:#231f20;stroke-miterlimit:10;}.cls-1,.cls-2,.cls-3,.cls-4,.cls-5{stroke-width:4px;}.cls-2{fill:#ffea04;}.cls-3{fill:#ff4500;}.cls-4{fill:#aadb1e;}.cls-5,.cls-6{fill:#f70000;}.cls-7{stroke-width:0.25px;}</style></defs><path class="cls-1" d="M57.19,51.42v67.65H29V51.42H7.34V24.16H78.75V51.42Z"/><path class="cls-1" d="M116.37,24.16v29q6.6-4.78,13.21-4.79,10,0,15.88,7.23t5.88,19.53v43.95h-26V82.43c0-3-.32-5-.94-6s-1.84-1.53-3.65-1.53q-4.38,0-4.38,6.46v37.69h-26V24.16Z"/><path class="cls-1" d="M237.77,88.61H198.35a18.83,18.83,0,0,1-.91-5.49,19.31,19.31,0,0,1,1.25-6.81H211.9q-1.38-7.73-8.69-7.72a9.43,9.43,0,0,0-7.92,4.14,17.34,17.34,0,0,0-3.06,10.6c0,4.5,1,8.13,3,10.92a9.1,9.1,0,0,0,7.75,4.17q3.9,0,7.51-3.9l14.81,17.8a36.31,36.31,0,0,1-23,8.14q-15.44,0-25.93-10.36t-10.5-25.66a34.79,34.79,0,0,1,10.6-25.72,35.58,35.58,0,0,1,26-10.5q15.09,0,25.34,10.25a34.34,34.34,0,0,1,10.26,25.28C238.05,84.77,238,86.39,237.77,88.61Z"/><path class="cls-2" d="M277.68,49.75v69.32h-26V49.75ZM264.75,18.81a12.72,12.72,0,0,1,9.14,3.72,11.79,11.79,0,0,1,3.86,8.79,11.76,11.76,0,0,1-3.65,8.9,14.3,14.3,0,0,1-18.7,0,11.72,11.72,0,0,1-3.65-8.9,11.79,11.79,0,0,1,3.86-8.79A12.72,12.72,0,0,1,264.75,18.81Z"/><path class="cls-1" d="M334.14,49.05V76.86a10.19,10.19,0,0,0-4.93-1.53q-7.09,0-7.1,10.85v32.89h-26V81.17q0-15,8.21-24t21.9-8.93A53,53,0,0,1,334.14,49.05Z"/><path class="cls-3" d="M421.83,49.75v69.32h-26V49.75ZM408.89,18.81A12.73,12.73,0,0,1,418,22.53a11.82,11.82,0,0,1,3.86,8.79,11.76,11.76,0,0,1-3.65,8.9,14.31,14.31,0,0,1-18.71,0,11.76,11.76,0,0,1-3.65-8.9,11.82,11.82,0,0,1,3.86-8.79A12.72,12.72,0,0,1,408.89,18.81Z"/><path class="cls-4" d="M518.48,49.72h11.68l-.45,26.6-11.23.86a20.39,20.39,0,0,0,12.17,20V119c-1.35,0-2.34.07-3,.07A35.36,35.36,0,0,1,511,115a34.6,34.6,0,0,1-9.19-6.91,36.54,36.54,0,0,1-3.36-4.22c-5.11-7.77-3.25-19.61-2.82-22.09C495.75,62.24,518.48,49.72,518.48,49.72Z"/><path class="cls-5" d="M344.25,22.48a64.61,64.61,0,0,0,8,1.77,66.61,66.61,0,0,0,20.86-.09c-.78,7.51-1.38,15.42-1.74,23.72-.52,12-.45,23.27,0,33.75a10.47,10.47,0,0,0,12.24,9.9h1.46v27.54H377.6q-15.44,0-24.05-9t-8.63-25c.56-15.43.61-31.55,0-48.3Q344.67,29.53,344.25,22.48Z"/><path class="cls-5" d="M483.71,48.72V76.11c-3.66,0-6.18.69-7.54,2.06s-2.24,4.06-2.61,8.1q-1.81,20.08-15.57,28.36-7.31,4.32-20.72,4.31h-3.62V91.41h1.18q6.26,0,8.94-2.61t3.09-9.14q.56-10.64,2-15a21.75,21.75,0,0,1,5.81-8.55q7.65-7.44,21.2-7.44Z"/><rect class="cls-5" x="381.42" y="91.45" width="55.08" height="27.61"/><path class="cls-5" d="M530.16,77.18A126.27,126.27,0,0,1,510.64,80a128.1,128.1,0,0,1-35.08-2.6V48.72c8.41-.21,15.47-.57,20.73-.9,10.44-.65,15.79-1,22.19-2.14a116.47,116.47,0,0,0,19.16-5.14,119.57,119.57,0,0,1-7.48,36.64Z"/><rect class="cls-6" x="378.32" y="93.46" width="5.22" height="23.52"/><path class="cls-6" d="M439.11,117h-5.22V93.46a35.2,35.2,0,0,0,3.71-.2c.55-.06,1.08-.14,1.59-.22Z"/><path class="cls-6" d="M478.78,76a4.6,4.6,0,0,0-3,.27,4.67,4.67,0,0,0-2.29,2.29l-.12-27.77h5.44Q478.77,63.36,478.78,76Z"/><path class="cls-7" d="M80.2,136.67h7.59l-14.2,39H68L57.82,148,47.68,175.7H42.1l-14.2-39h7.58l9.44,25.75,9.43-25.75h7l9.43,25.75Z"/><path class="cls-7" d="M116.57,144.26a7.24,7.24,0,0,1,5.26,2.2,7.15,7.15,0,0,1,2.22,5.28v24H117v-24a.34.34,0,0,0-.38-.38h-17a.34.34,0,0,0-.38.38v24h-7.1V134h7.1v10.3Z"/><path class="cls-7" d="M152.67,144.26a7.49,7.49,0,0,1,7.47,7.48v24H135.7a7.51,7.51,0,0,1-7.48-7.48V156.4H153v-4.66a.33.33,0,0,0-.37-.38H128.22v-7.1ZM153,168.6v-5H135.32v4.66a.34.34,0,0,0,.38.38Z"/><path class="cls-7" d="M185.24,151.36H173v16.86a.34.34,0,0,0,.38.38h11.87v7.1H173.37a7.14,7.14,0,0,1-5.31-2.2,7.22,7.22,0,0,1-2.17-5.28V134H173v10.3h12.25Z"/><path class="cls-7" d="M221.23,151.74v1.36h-7.1v-1.36a.34.34,0,0,0-.38-.38h-17a.34.34,0,0,0-.38.38v4.34c0,.21.13.32.38.32h17a7.17,7.17,0,0,1,5.31,2.2,7.26,7.26,0,0,1,2.17,5.28v4.34a7.26,7.26,0,0,1-2.17,5.28,7.17,7.17,0,0,1-5.31,2.2h-17a7.51,7.51,0,0,1-7.48-7.48v-1.36h7.1v1.36a.34.34,0,0,0,.38.38h17a.34.34,0,0,0,.38-.38v-4.34c0-.21-.13-.32-.38-.32h-17a7.51,7.51,0,0,1-7.48-7.48v-4.34a7.51,7.51,0,0,1,7.48-7.48h17a7.17,7.17,0,0,1,5.31,2.2A7.26,7.26,0,0,1,221.23,151.74Z"/><path class="cls-7" d="M262.8,151.36H250.55v16.86a.33.33,0,0,0,.38.38H262.8v7.1H250.93a7.14,7.14,0,0,1-5.31-2.2,7.22,7.22,0,0,1-2.17-5.28V134h7.1v10.3H262.8Z"/><path class="cls-7" d="M291.63,144.26a7.55,7.55,0,0,1,7.48,7.48v24H292v-24a.34.34,0,0,0-.38-.38h-17a.33.33,0,0,0-.38.38v24h-7.1V134h7.1v10.3Z"/><path class="cls-7" d="M327.67,144.26a7.49,7.49,0,0,1,7.48,7.48v11.82H310.33v4.66a.34.34,0,0,0,.38.38h24.44v7.1H310.71a7.51,7.51,0,0,1-7.48-7.48V151.74a7.51,7.51,0,0,1,7.48-7.48ZM310.33,156.4h17.72v-4.66a.33.33,0,0,0-.38-.38h-17a.34.34,0,0,0-.38.38Z"/><path class="cls-7" d="M395.32,144.21v7.64a6.37,6.37,0,0,1-.55,2.76,7.27,7.27,0,0,1,2.12,5.15v8.4a7.22,7.22,0,0,1-2.22,5.34,7.37,7.37,0,0,1-5.37,2.2H357.86v-39h29.92a7.3,7.3,0,0,1,5.31,2.2A7.23,7.23,0,0,1,395.32,144.21Zm-7.54-.38H365.4a.33.33,0,0,0-.38.38v7.64a.33.33,0,0,0,.38.38h22.38c.22,0,.33-.13.33-.38v-7.64C388.11,144,388,143.83,387.78,143.83Zm1.9,24.33v-8.4c0-.21-.13-.32-.38-.32H365.4c-.26,0-.38.11-.38.32v8.4a.33.33,0,0,0,.38.38h23.9A.33.33,0,0,0,389.68,168.16Z"/><path class="cls-7" d="M427,144.26a7.51,7.51,0,0,1,7.48,7.48v11.82H409.62v4.66a.34.34,0,0,0,.38.38h24.45v7.1H410a7.51,7.51,0,0,1-7.48-7.48V151.74a7.51,7.51,0,0,1,7.48-7.48ZM409.62,156.4h17.73v-4.66a.34.34,0,0,0-.38-.38H410a.34.34,0,0,0-.38.38Z"/><path class="cls-7" d="M470.71,151.74v1.36h-7.1v-1.36a.34.34,0,0,0-.38-.38h-17a.34.34,0,0,0-.38.38v4.34c0,.21.13.32.38.32h17a7.17,7.17,0,0,1,5.31,2.2,7.26,7.26,0,0,1,2.17,5.28v4.34a7.26,7.26,0,0,1-2.17,5.28,7.17,7.17,0,0,1-5.31,2.2h-17a7.51,7.51,0,0,1-7.48-7.48v-1.36h7.1v1.36a.34.34,0,0,0,.38.38h17a.34.34,0,0,0,.38-.38v-4.34c0-.21-.13-.32-.38-.32h-17a7.51,7.51,0,0,1-7.48-7.48v-4.34a7.51,7.51,0,0,1,7.48-7.48h17a7.17,7.17,0,0,1,5.31,2.2A7.26,7.26,0,0,1,470.71,151.74Z"/><path class="cls-7" d="M495.58,151.36H483.34v16.86a.33.33,0,0,0,.38.38h11.86v7.1H483.72a7.44,7.44,0,0,1-7.48-7.48V134h7.1v10.3h12.24Z"/><path class="cls-7" d="M498.73,136.67h26.34a7.46,7.46,0,0,1,7.48,7.48v9.49a7.46,7.46,0,0,1-7.48,7.48H511.74a.29.29,0,0,0-.33.32v3.63h-7.15v-3.63a7.49,7.49,0,0,1,7.48-7.48h13.33c.25,0,.38-.1.38-.32v-9.49a.34.34,0,0,0-.38-.38H498.73Zm12.68,39h-7.15v-7.1h7.15Z"/><path class="cls-4" d="M511.56,15.64a12.79,12.79,0,0,1,9.22,3.73,11.89,11.89,0,0,1,3.86,8.85A11.54,11.54,0,0,1,520.81,37a13.07,13.07,0,0,1-9.25,3.59,12.88,12.88,0,0,1-9.28-3.49,11.74,11.74,0,0,1-3.64-8.88,11.9,11.9,0,0,1,3.77-8.88A12.7,12.7,0,0,1,511.56,15.64Z"/></svg>