<svg id="Layer_1" data-name="Layer 1" xmlns="http://www.w3.org/2000/svg" viewBox="0 0 545.14 209.25"><defs><style>.cls-1,.cls-6{fill:#e6e7e8;}.cls-1,.cls-2,.cls-3,.cls-4,.cls-5,.cls-6{stroke:#231f20;stroke-miterlimit:10;}.cls-1,.cls-2,.cls-3,.cls-4,.cls-5{stroke-width:4px;}.cls-2{fill:#ffea04;}.cls-3{fill:#ff4500;}.cls-4{fill:#aadb1e;}.cls-5{fill:#f70000;}.cls-6{stroke-width:0.25px;}</style></defs><path class="cls-1" d="M57.19,67.49v67.65H29V67.49H7.34V40.23H78.75V67.49Z"/><path class="cls-1" d="M116.37,40.23v29q6.6-4.8,13.21-4.8,10,0,15.88,7.23t5.88,19.54v43.94h-26V98.5c0-3-.32-5-.94-6S122.56,91,120.75,91q-4.38,0-4.38,6.46v37.69h-26V40.23Z"/><path class="cls-1" d="M237.77,104.69H198.35a19,19,0,0,1-.91-5.5,19.31,19.31,0,0,1,1.25-6.81H211.9q-1.38-7.72-8.69-7.72a9.43,9.43,0,0,0-7.92,4.14,17.36,17.36,0,0,0-3.06,10.6q0,6.75,3,10.92a9.1,9.1,0,0,0,7.75,4.17q3.9,0,7.51-3.89l14.81,17.79a36.31,36.31,0,0,1-23,8.14q-15.44,0-25.93-10.36t-10.5-25.66a34.79,34.79,0,0,1,10.6-25.72,35.58,35.58,0,0,1,26-10.5q15.09,0,25.34,10.25a34.36,34.36,0,0,1,10.26,25.28C238.05,100.84,238,102.46,237.77,104.69Z"/><path class="cls-2" d="M277.68,65.82v69.32h-26V65.82ZM264.75,34.88a12.72,12.72,0,0,1,9.14,3.72,12.3,12.3,0,0,1,.21,17.69,14.3,14.3,0,0,1-18.7,0,12.3,12.3,0,0,1,.21-17.69A12.72,12.72,0,0,1,264.75,34.88Z"/><path class="cls-1" d="M334.14,65.12V92.93a10.3,10.3,0,0,0-4.93-1.53q-7.09,0-7.1,10.85v32.89h-26V97.25q0-15,8.21-24t21.9-8.93A53,53,0,0,1,334.14,65.12Z"/><path class="cls-3" d="M421.83,65.82v69.32h-26V65.82ZM408.89,34.88A12.73,12.73,0,0,1,418,38.6a12.3,12.3,0,0,1,.21,17.69,14.31,14.31,0,0,1-18.71,0,12.3,12.3,0,0,1,.21-17.69A12.72,12.72,0,0,1,408.89,34.88Z"/><path class="cls-4" d="M518.48,65.79h11.68l-.45,26.6-11.23.87a20.41,20.41,0,0,0,12.17,20v21.82c-1.35,0-2.34.07-3,.07a35.36,35.36,0,0,1-16.65-4.1,34.6,34.6,0,0,1-9.19-6.91,36.54,36.54,0,0,1-3.36-4.22c-5.11-7.77-3.25-19.61-2.82-22.09C495.75,78.32,518.48,65.79,518.48,65.79Z"/><path class="cls-5" d="M537.65,56.61a120.78,120.78,0,0,1-3.22,22.72,119.32,119.32,0,0,1-4.27,13.93A127.36,127.36,0,0,1,510.65,96a128.79,128.79,0,0,1-33.82-2.34,4.32,4.32,0,0,0-.66.54c-1.37,1.37-2.23,4.07-2.61,8.1q-1.8,20.1-15.57,28.37Q450.69,135,437.27,135h-.77v.12H377.61q-15.44,0-24.06-9t-8.62-25c.56-15.42.61-31.54,0-48.3q-.27-7.23-.68-14.28a68.88,68.88,0,0,0,8,1.77,67.28,67.28,0,0,0,20.87-.09c-.78,7.5-1.39,15.42-1.74,23.71-.52,12-.46,23.27,0,33.75a10.77,10.77,0,0,0,3.86,7.72,10.3,10.3,0,0,0,6.14,2.3v-.19h52.24v0h1.18q6.26,0,8.93-2.61t3.1-9.14q.56-10.65,2-14.95a21.57,21.57,0,0,1,5.8-8.55q7.56-7.36,20.92-7.43h0c8.41-.21,15.47-.58,20.72-.9,10.44-.65,15.79-1,22.19-2.15A116.92,116.92,0,0,0,537.65,56.61Z"/><path class="cls-6" d="M80.2,152.74h7.59l-14.2,39H68l-10.13-27.7-10.14,27.7H42.1l-14.2-39h7.58l9.44,25.75,9.43-25.75h7l9.43,25.75Z"/><path class="cls-6" d="M116.57,160.33a7.27,7.27,0,0,1,5.26,2.2,7.15,7.15,0,0,1,2.22,5.28v24H117v-24a.34.34,0,0,0-.38-.38h-17a.34.34,0,0,0-.38.38v24h-7.1V150h7.1v10.3Z"/><path class="cls-6" d="M152.67,160.33a7.49,7.49,0,0,1,7.47,7.48v24H135.7a7.51,7.51,0,0,1-7.48-7.48V172.47H153v-4.66a.33.33,0,0,0-.37-.38H128.22v-7.1Zm.37,24.34v-5H135.32v4.66a.34.34,0,0,0,.38.38Z"/><path class="cls-6" d="M185.24,167.43H173v16.86a.34.34,0,0,0,.38.38h11.87v7.1H173.37a7.14,7.14,0,0,1-5.31-2.2,7.22,7.22,0,0,1-2.17-5.28V150H173v10.3h12.25Z"/><path class="cls-6" d="M221.23,167.81v1.36h-7.1v-1.36a.34.34,0,0,0-.38-.38h-17a.34.34,0,0,0-.38.38v4.34c0,.22.13.32.38.32h17a7.46,7.46,0,0,1,7.48,7.48v4.34a7.26,7.26,0,0,1-2.17,5.28,7.17,7.17,0,0,1-5.31,2.2h-17a7.51,7.51,0,0,1-7.48-7.48v-1.36h7.1v1.36a.34.34,0,0,0,.38.38h17a.34.34,0,0,0,.38-.38V180c0-.21-.13-.32-.38-.32h-17a7.51,7.51,0,0,1-7.48-7.48v-4.34a7.51,7.51,0,0,1,7.48-7.48h17a7.46,7.46,0,0,1,7.48,7.48Z"/><path class="cls-6" d="M262.8,167.43H250.55v16.86a.33.33,0,0,0,.38.38H262.8v7.1H250.93a7.14,7.14,0,0,1-5.31-2.2,7.22,7.22,0,0,1-2.17-5.28V150h7.1v10.3H262.8Z"/><path class="cls-6" d="M291.63,160.33a7.24,7.24,0,0,1,5.26,2.2,7.15,7.15,0,0,1,2.22,5.28v24H292v-24a.34.34,0,0,0-.38-.38h-17a.33.33,0,0,0-.38.38v24h-7.1V150h7.1v10.3Z"/><path class="cls-6" d="M327.67,160.33a7.49,7.49,0,0,1,7.48,7.48v11.82H310.33v4.66a.34.34,0,0,0,.38.38h24.44v7.1H310.71a7.51,7.51,0,0,1-7.48-7.48V167.81a7.51,7.51,0,0,1,7.48-7.48Zm-17.34,12.14h17.72v-4.66a.33.33,0,0,0-.38-.38h-17a.34.34,0,0,0-.38.38Z"/><path class="cls-6" d="M395.32,160.28v7.64a6.42,6.42,0,0,1-.55,2.77,7.23,7.23,0,0,1,2.12,5.14v8.41a7.21,7.21,0,0,1-2.22,5.33,7.37,7.37,0,0,1-5.37,2.2H357.86v-39h29.92a7.3,7.3,0,0,1,5.31,2.2A7.23,7.23,0,0,1,395.32,160.28Zm-7.54-.38H365.4a.33.33,0,0,0-.38.38v7.64a.33.33,0,0,0,.38.38h22.38c.22,0,.33-.13.33-.38v-7.64C388.11,160,388,159.9,387.78,159.9Zm1.9,24.34v-8.41c0-.21-.13-.32-.38-.32H365.4c-.26,0-.38.11-.38.32v8.41c0,.25.12.37.38.37h23.9A.33.33,0,0,0,389.68,184.24Z"/><path class="cls-6" d="M427,160.33a7.51,7.51,0,0,1,7.48,7.48v11.82H409.62v4.66a.34.34,0,0,0,.38.38h24.45v7.1H410a7.51,7.51,0,0,1-7.48-7.48V167.81a7.51,7.51,0,0,1,7.48-7.48Zm-17.35,12.14h17.73v-4.66a.34.34,0,0,0-.38-.38H410a.34.34,0,0,0-.38.38Z"/><path class="cls-6" d="M470.71,167.81v1.36h-7.1v-1.36a.34.34,0,0,0-.38-.38h-17a.34.34,0,0,0-.38.38v4.34c0,.22.13.32.38.32h17a7.46,7.46,0,0,1,7.48,7.48v4.34a7.26,7.26,0,0,1-2.17,5.28,7.17,7.17,0,0,1-5.31,2.2h-17a7.51,7.51,0,0,1-7.48-7.48v-1.36h7.1v1.36a.34.34,0,0,0,.38.38h17a.34.34,0,0,0,.38-.38V180c0-.21-.13-.32-.38-.32h-17a7.51,7.51,0,0,1-7.48-7.48v-4.34a7.51,7.51,0,0,1,7.48-7.48h17a7.46,7.46,0,0,1,7.48,7.48Z"/><path class="cls-6" d="M495.58,167.43H483.34v16.86a.33.33,0,0,0,.38.38h11.86v7.1H483.72a7.44,7.44,0,0,1-7.48-7.48V150h7.1v10.3h12.24Z"/><path class="cls-6" d="M498.73,152.74h26.34a7.46,7.46,0,0,1,7.48,7.49v9.48a7.46,7.46,0,0,1-7.48,7.48H511.74a.29.29,0,0,0-.33.32v3.64h-7.15v-3.64a7.49,7.49,0,0,1,7.48-7.48h13.33c.25,0,.38-.1.38-.32v-9.48a.33.33,0,0,0-.38-.38H498.73Zm12.68,39h-7.15v-7.1h7.15Z"/><path class="cls-4" d="M511.56,31.72a12.82,12.82,0,0,1,9.22,3.72,11.89,11.89,0,0,1,3.86,8.85A11.52,11.52,0,0,1,520.81,53a13.07,13.07,0,0,1-9.25,3.59,12.84,12.84,0,0,1-9.28-3.49,11.74,11.74,0,0,1-3.64-8.88,11.9,11.9,0,0,1,3.77-8.88A12.7,12.7,0,0,1,511.56,31.72Z"/><path class="cls-5" d="M360.57,6.82a12.83,12.83,0,0,1,9.22,3.73,11.89,11.89,0,0,1,3.86,8.85,11.54,11.54,0,0,1-3.83,8.73,13.07,13.07,0,0,1-9.25,3.59,12.88,12.88,0,0,1-9.28-3.49,11.74,11.74,0,0,1-3.64-8.88,11.87,11.87,0,0,1,3.78-8.88A12.66,12.66,0,0,1,360.57,6.82Z"/></svg>