<svg id="Layer_1" data-name="Layer 1" xmlns="http://www.w3.org/2000/svg" viewBox="0 0 228.86 108.64"><defs><style>.cls-1{fill:#e6e7e8;}.cls-1,.cls-2{stroke:#231f20;stroke-miterlimit:10;stroke-width:4px;}.cls-2,.cls-3{fill:#d10000;}</style></defs><path class="cls-1" d="M82.31,35v69.32h-26V35ZM69.37,4.05a12.73,12.73,0,0,1,9.15,3.72,11.82,11.82,0,0,1,3.86,8.79,11.76,11.76,0,0,1-3.65,8.9,13,13,0,0,1-9.36,3.48A13,13,0,0,1,60,25.46a11.76,11.76,0,0,1-3.65-8.9,11.82,11.82,0,0,1,3.86-8.79A12.72,12.72,0,0,1,69.37,4.05Z"/><path class="cls-1" d="M179,8.4V35h11.68l-.45,26.6L179,62.42a20.39,20.39,0,0,0,12.17,20v21.83c-1.35,0-2.34.07-3,.07a35.36,35.36,0,0,1-16.65-4.1,34.6,34.6,0,0,1-9.19-6.91,36.54,36.54,0,0,1-3.36-4.22c-5.11-7.77-3.25-19.61-2.82-22.09q.16-29.33.32-58.63Z"/><path class="cls-1" d="M211,79.7a12.81,12.81,0,0,1,9.23,3.73,11.89,11.89,0,0,1,3.86,8.85,11.51,11.51,0,0,1-3.84,8.73A13,13,0,0,1,211,104.6a12.9,12.9,0,0,1-9.28-3.49,12.48,12.48,0,0,1,.14-17.76A12.7,12.7,0,0,1,211,79.7Z"/><path class="cls-2" d="M4.73,7.72a64.61,64.61,0,0,0,8,1.77A66.61,66.61,0,0,0,33.63,9.4c-.78,7.51-1.38,15.42-1.74,23.72-.52,12-.45,23.27,0,33.75a10.47,10.47,0,0,0,12.24,9.9h1.46v27.54H38.08q-15.43,0-24-9t-8.63-25C6,54.88,6,38.76,5.4,22Q5.15,14.78,4.73,7.72Z"/><path class="cls-2" d="M144.19,34v27.4c-3.66,0-6.18.68-7.54,2s-2.24,4.06-2.61,8.1q-1.8,20.08-15.57,28.36-7.31,4.32-20.72,4.31H94.13V76.65h1.18q6.25,0,8.94-2.61t3.09-9.14q.55-10.64,2-15a21.75,21.75,0,0,1,5.81-8.55Q122.78,34,136.34,34Z"/><rect class="cls-2" x="41.9" y="76.69" width="55.08" height="27.61"/><path class="cls-2" d="M190.64,62.42a126.27,126.27,0,0,1-19.52,2.78A128.1,128.1,0,0,1,136,62.6V34c8.41-.21,15.47-.57,20.73-.9,10.44-.65,15.79-1,22.19-2.14a116.47,116.47,0,0,0,19.16-5.14,119.89,119.89,0,0,1-3.21,22.71A118.14,118.14,0,0,1,190.64,62.42Z"/><rect class="cls-3" x="38.8" y="78.7" width="5.22" height="23.52"/><path class="cls-3" d="M99.59,102.22H94.37V78.7a35.52,35.52,0,0,0,3.72-.2c.54-.06,1.07-.14,1.58-.22Z"/><path class="cls-3" d="M139.26,61.21a4.74,4.74,0,0,0-3,.27,4.79,4.79,0,0,0-2.3,2.29q0-13.87-.11-27.77h5.44Q139.25,48.61,139.26,61.21Z"/></svg>